<?xml version="1.0" encoding="utf-8"?>
<!-- Generator: Adobe Illustrator 16.0.0, SVG Export Plug-In . SVG Version: 6.00 Build 0)  -->
<!DOCTYPE svg PUBLIC "-//W3C//DTD SVG 1.1//EN" "http://www.w3.org/Graphics/SVG/1.1/DTD/svg11.dtd">
<svg version="1.1" id="Layer_1" xmlns="http://www.w3.org/2000/svg" xmlns:xlink="http://www.w3.org/1999/xlink" x="0px" y="0px"
	 width="133.332px" height="34.302px" viewBox="90.677 135.156 133.332 34.302"
	 enable-background="new 90.677 135.156 133.332 34.302" xml:space="preserve">
<path d="M139.551,154.271c-0.709-3.889-5.92-1.359-7.988-0.049c-2.125,1.348-4.172,2.928-5.687,4.832
	c-0.466-1.244-1.317-2.355-2.79-3.297c-4.391-2.813-10.281,0.938-13.902,3.213c-0.463,0.291-0.65,0.717-0.635,1.127
	c-0.337,0.227-0.666,0.51-0.982,0.816c-1.336,1.299-2.453,2.896-3.912,4.033c-0.707,0.545-1.457,1.018-2.254,1.416
	c-0.646-0.848-1.295-1.697-1.94-2.545c0.697-0.986,1.351-2.01,1.99-2.992c1.423-2.178,5.261-5.93,2.524-8.295
	c-2.97-2.564-8.711,7.629-8.045,13.211c-1.404,1.561-3.017,2.723-4.873,2.92c-0.5,0.055-0.516,0.811,0.008,0.797
	c2.125-0.051,3.834-0.885,5.297-2.119c0.342,0.709,0.871,1.252,1.631,1.555c2.9,1.16,5.652-0.867,7.888-2.594
	c0.933-0.721,3.521-5.178,3.974-2.955c0.315,1.563,1.668,2.316,3.024,2.736c2.229,0.688,5.153-1.803,4.822-4.113
	c-0.326-2.285-1.97-2.791-3.866-2.922c1.367-0.713,2.788-1.307,4.366-1.68c5.104-1.205,5.717,2.541,5.497,5.979
	c-0.219,0.887-0.322,1.826-0.282,2.828c0.062,1.494,2.437,1.6,2.612,0.109c0.097-0.814,0.191-1.609,0.257-2.381
	c0.704-2.621,2.834-4.521,4.993-6.211c0.858-0.67,5.738-3.912,6.797-2.783C138.606,155.477,139.712,155.154,139.551,154.271z
	 M99.5,159.881c0.441-1.256,0.939-2.484,1.494-3.691c1.523-0.779,1.688-0.498,0.49,0.844c-0.645,1.047-1.385,2.453-2.236,3.924
	C99.334,160.6,99.413,160.238,99.5,159.881z"/>
<path d="M143.102,154.469c-0.006-1.336-2.074-1.494-2.082-0.146c-0.006,1.1-0.024,2.193-0.103,3.291
	c-0.101,1.443-0.388,2.809,0.084,4.229c0.084,0.254,0.37,0.369,0.604,0.234c1.182-0.67,1.184-2.148,1.334-3.367
	C143.119,157.305,143.108,155.881,143.102,154.469z"/>
<path d="M186.848,148.264c-0.377-0.807-1.406-0.416-1.67,0.225c-0.664,2.229-2.572,1.961-5.726-0.799
	c0.074-0.541,0.193-1.07,0.336-1.596c1.556-3.082,2.59-6.402,3.099-8.887c0.34-1.666-1.746-2.887-2.802-1.34
	c-1.36,1.996-3.235,6.02-3.896,9.834c-0.467,0.756-0.965,1.494-1.515,2.205c-0.795,1.029-3.141,4.482-5.01,3.314
	c-0.688-0.432-0.987-1.098-1.887-1.24c-2.605-0.418-5.328,4.775-3.752-0.699c0.561-1.941,1.631-7.018-0.541-8.463
	c-2.588-1.725-6.027,4.42-7.184,5.811c-1.885,2.268-3.613,5.01-5.092,7.73c-1.771-1.371-3.604-2.535-2.353-3.771
	c0.644-0.637-0.254-1.658-0.935-1.053c-1.049,0.938-3.147,2.809-1.198,4.16c1.396,0.971,2.813,1.332,3.683,2.184
	c-0.229,0.447-0.451,0.893-0.666,1.332c-0.603,1.236-1.261,2.734-0.619,4.029c0.223,0.447,0.723,0.594,1.182,0.523
	c1.848-0.277,3.516-2.039,3.461-4.012c-0.02-0.684-0.373-1.305-0.881-1.887c0.471-0.76,0.959-1.492,1.383-2.176
	c2.09-3.379,4.266-6.939,6.945-9.9c0.947-1.188,1.182-0.676,0.701,1.541c-0.359,1.189-0.168,2.551-0.58,3.725
	c-0.426,1.213-0.666,2.445-0.687,3.73c-0.024,1.58,1.621,2.984,3.19,2.338c1.015-0.416,3.146-2.07,3.945-1.555
	c0.83,0.537,1.748,1.188,2.818,1.029c2.232-0.334,4.166-1.639,5.807-3.441c0.34,0.932,0.869,1.74,1.674,2.34
	C181.791,156.246,189.328,153.547,186.848,148.264z"/>
<path d="M192.667,138.918c-3.685,0.703-7.265,1.715-10.765,3.057c-2.043,0.783-5.114,1.971-6.577,3.65
	c-0.89,1.018,0.512,2.549,1.475,1.541c1.533-1.605,5.129-2.646,7.205-3.451c3.092-1.201,6.16-2.199,9.016-3.938
	C193.434,139.525,193.121,138.832,192.667,138.918z"/>
<path d="M223.212,140.492c-8.512,3.313-17.555,10.248-26.977,9.57c-1.729-0.125-2.527-0.834-2.764-1.816
	c1.795-0.643,3.467-1.582,5.207-2.766c1.561-1.061,7.742-3.973,7.184-6.604c-1.602-7.533-10.389,0.447-12.447,3.197
	c-1.235,1.648-1.922,3.141-2.156,4.453c-0.84,0.213-1.702,0.355-2.592,0.41c-1.451,0.088-1.326,2.32,0.119,2.248
	c0.906-0.047,1.758-0.162,2.574-0.334c0.779,2.621,3.92,4.098,8.168,4.09c4.25-0.008,8.41-2.328,12.141-4.08
	c4.279-2.012,8.533-4.342,12.164-7.395C224.298,141.076,223.748,140.285,223.212,140.492z M196.608,140.592
	c0.828-1.096,1.849-1.988,3.054-2.68c2.936,1.117,3.383,2.162,1.342,3.139c-2.256,1.766-4.64,3.488-7.244,4.615
	C194.479,143.537,196.078,141.295,196.608,140.592z"/>
</svg>
